<svg width="20" height="20" viewBox="0 0 20 20" fill="none" xmlns="http://www.w3.org/2000/svg">
<path d="M9.99805 16.25C6.54627 16.25 3.74805 13.4518 3.74805 10C3.74805 6.54822 6.54627 3.75 9.99805 3.75C13.4498 3.75 16.248 6.54822 16.248 10C16.248 13.4518 13.4498 16.25 9.99805 16.25ZM9.99805 17.5C14.1402 17.5 17.498 14.1421 17.498 10C17.498 5.85786 14.1402 2.5 9.99805 2.5C5.85591 2.5 2.49805 5.85786 2.49805 10C2.49805 14.1421 5.85591 17.5 9.99805 17.5ZM10.6059 6.74473C10.6059 7.08991 10.3261 7.36973 9.98094 7.36973C9.63576 7.36973 9.35594 7.08991 9.35594 6.74473C9.35594 6.39955 9.63576 6.11973 9.98094 6.11973C10.3261 6.11973 10.6059 6.39955 10.6059 6.74473ZM10.623 13.6197V8.61973H9.37305V13.6197H10.623Z" fill="#040404"/>
</svg>
