<svg id="fi_3525722" enable-background="new 0 0 479.978 479.978" height="512" viewBox="0 0 479.978 479.978" width="512" xmlns="http://www.w3.org/2000/svg"><g><path d="m274.989 255.978c-4.418 0-8-3.582-8-8v-112c0-4.418 3.582-8 8-8h32c22.056 0 40 17.944 40 40s-17.944 40-40 40h-24v40c0 4.418-3.582 8-8 8zm8-64h24c13.233 0 24-10.767 24-24s-10.767-24-24-24h-24z"></path><path d="m410.989 255.978h-30c-14.337 0-26-11.663-26-26s11.663-26 26-26h22v-6c0-5.514-4.486-10-10-10h-14c-4.418 0-8-3.582-8-8s3.582-8 8-8h14c14.337 0 26 11.663 26 26v50c0 4.418-3.582 8-8 8zm-30-36c-5.514 0-10 4.486-10 10s4.486 10 10 10h22v-20z"></path><circle cx="160.989" cy="379.978" r="40"></circle><path d="m221.989 300.738v-257.66c0-17.79-11.4-33.17-28.37-38.28-21.09-6.35-43.71-6.41-64.95-.1-16.89 5.021-28.68 20.8-28.68 38.37v257.67c-24.5 18.89-39 48.2-39 79.24 0 55.14 44.86 100 100 100s100-44.86 100-100c0-31.04-14.5-60.35-39-79.24zm-69-217.76c0-4.418 3.582-8 8-8s8 3.582 8 8v13c0 4.418-3.582 8-8 8s-8-3.582-8-8zm0 52c0-4.418 3.582-8 8-8s8 3.582 8 8v93.613c0 4.418-3.582 8-8 8s-8-3.582-8-8zm5.317 300.937c-28.68-1.346-51.944-24.638-53.257-53.32-1.245-27.202 17.038-50.429 41.994-56.848 3.512-.903 5.946-4.099 5.946-7.726v-48.64c0-4.261 3.216-7.982 7.468-8.257 4.659-.301 8.532 3.389 8.532 7.983v48.776c0 3.672 2.432 6.957 5.987 7.875 24.131 6.227 42.013 28.171 42.013 54.221 0 31.767-26.59 57.442-58.683 55.936z"></path></g></svg>