<svg id="fi_3418571" enable-background="new 0 0 512 512" height="512" viewBox="0 0 512 512" width="512" xmlns="http://www.w3.org/2000/svg"><g><path d="m416.532 62.133c8.284 0 15-6.716 15-15v-32.133c0-8.284-6.716-15-15-15s-15 6.716-15 15v32.133c0 8.284 6.716 15 15 15z"></path><path d="m416.532 158.533c8.284 0 15-6.716 15-15v-32.133c0-8.284-6.716-15-15-15s-15 6.716-15 15v32.133c0 8.284 6.716 15 15 15z"></path><path d="m175.533 110.333c8.284 0 15-6.716 15-15v-32.133c0-8.284-6.716-15-15-15s-15 6.716-15 15v32.133c0 8.285 6.716 15 15 15z"></path><path d="m336.199 110.333c8.284 0 15-6.716 15-15v-32.133c0-8.284-6.716-15-15-15s-15 6.716-15 15v32.133c0 8.285 6.716 15 15 15z"></path><path d="m255.866 62.133c8.284 0 15-6.716 15-15v-32.133c0-8.284-6.716-15-15-15s-15 6.716-15 15v32.133c0 8.284 6.716 15 15 15z"></path><path d="m95.199 62.133c8.284 0 15-6.716 15-15v-32.133c0-8.284-6.716-15-15-15s-15 6.716-15 15v32.133c0 8.284 6.716 15 15 15z"></path><path d="m95.199 158.533c8.284 0 15-6.716 15-15v-32.133c0-8.284-6.716-15-15-15s-15 6.716-15 15v32.133c0 8.284 6.716 15 15 15z"></path><path d="m270.866 129.104v-17.704c0-8.284-6.716-15-15-15s-15 6.716-15 15v17.728c-98.707 7.727-176.596 90.372-176.596 191.135v.004c0 5.199 2.692 10.027 7.114 12.76 5.923 3.661 13.581 2.759 18.495-2.155 12.902-12.902 30.056-20.008 48.302-20.008s35.4 7.105 48.302 20.008c5.858 5.858 15.356 5.863 21.219 0 9.254-9.254 20.702-15.507 33.165-18.314v136.242c0 18.341-14.839 33.2-33.2 33.2-18.307 0-33.2-14.894-33.2-33.2 0-8.284-6.716-15-15-15s-15 6.716-15 15c0 34.849 28.352 63.2 63.2 63.2 34.904 0 63.2-28.238 63.2-63.2v-136.302c12.567 2.777 24.112 9.053 33.432 18.374 5.859 5.859 15.358 5.861 21.219 0 12.902-12.902 30.056-20.008 48.302-20.008s35.4 7.105 48.302 20.008c4.914 4.914 12.573 5.816 18.495 2.155 4.422-2.733 7.114-7.561 7.114-12.76v-.004c-.001-100.855-78.03-183.561-176.865-191.159zm102.956 151.759c-21.528 0-42.002 6.875-58.911 19.583-16.91-12.708-37.383-19.583-58.911-19.583s-42.001 6.875-58.911 19.583c-16.909-12.708-37.383-19.583-58.911-19.583-14.412 0-28.35 3.08-41.063 8.929 16.554-87.314 94.048-131.259 158.885-131.259s142.331 43.944 158.885 131.259c-12.713-5.849-26.651-8.929-41.063-8.929z"></path></g></svg>